#!OML:ASF F:\VICON\USERDATA\INSTALL\rory3\rory3.ASF
:FULLY-SPECIFIED
:DEGREES
360
root 2.92803 14.6151 1.77925 440.873 1.41552 8.51938
lowerback 14.8322 -1.10223 10.4149
upperback 0.0224845 1.1483 9.19484
thorax -8.39651 0.317154 3.88622
lowerneck -19.5692 -4.23956 -4.71842
upperneck -2.11195 -5.21826 11.4663
head 2.92368 -2.13763 3.88612
rclavicle 1.59028e-015 -1.63724e-013
rhumerus 55.6576 1.54437 -52.9082
rradius 29.6102
rwrist 13.8592
rhand -30.633 -70.7181
rfingers 7.12502
rthumb 176.071 -79.3384
lclavicle 1.59028e-015 -1.63724e-013
lhumerus 58.6229 7.45909 0.372628
lradius 33.1033
lwrist -3.92321
lhand -50.2851 -776.443
lfingers 7.12502
lthumb -22.8627 -27.7783
rfemur -119.274 -1.4361 12.5179
rtibia 68.4915
rfoot -21.5861 -19.6433
rtoes -1.195
lfemur -57.8182 -9.02468 -24.4689
ltibia 37.5063
lfoot -14.4818 26.9983
ltoes -15.5289
361
root 2.93785 14.5954 1.97472 443.334 0.935937 9.33766
lowerback 14.8631 -0.829655 11.0942
upperback -0.773707 1.7256 8.98197
thorax -9.27689 0.51976 3.18723
lowerneck -18.4463 -4.26016 -3.67687
upperneck -3.17113 -5.39636 11.1147
head 2.40803 -2.3202 3.60907
rclavicle -7.95139e-015 -1.25135e-013
rhumerus 55.053 -0.273923 -53.4736
rradius 30.609
rwrist 14.2393
rhand -30.4903 -70.6474
rfingers 7.12502
rthumb 176.209 -79.4066
lclavicle -7.95139e-015 -1.25135e-013
lhumerus 62.1799 8.70315 2.36523
lradius 31.9476
lwrist -6.79621
lhand -52.5051 -769.896
lfingers 7.12502
lthumb -24.9916 -21.5108
rfemur -120.59 -2.47508 11.5177
rtibia 68.0755
rfoot -21.7252 -20.0767
rtoes -2.50981
lfemur -57.5683 -6.18689 -27.5873
ltibia 37.1075
lfoot -13.0443 18.6791
ltoes -17.266
362
root 2.94722 14.5579 2.16858 445.975 0.243179 10.1584
lowerback 14.5851 -0.835396 11.788
upperback -1.86784 1.90095 8.45773
thorax -10.3118 0.498969 2.2334
lowerneck -16.2369 -3.91533 -1.72719
upperneck -4.3627 -5.20949 10.144
head 1.78177 -2.38767 3.32065
rclavicle 1.43125e-014 -7.95139e-014
rhumerus 54.4988 -1.13585 -54.6662
rradius 31.5036
rwrist 13.9999
rhand -30.3926 -71.1965
rfingers 7.12502
rthumb 176.303 -78.8558
lclavicle 1.43125e-014 -7.95139e-014
lhumerus 64.7555 8.86774 2.72595
lradius 31.4475
lwrist -6.94047
lhand -46.4873 -778.927
lfingers 7.12502
lthumb -19.2143 -29.8561
rfemur -122.186 -3.64738 10.4577
rtibia 67.7262
rfoot -22.0827 -19.864
rtoes -1.9521
lfemur -57.2381 -3.88817 -30.5658
ltibia 36.47
lfoot -13.1772 13.2253
ltoes -26.2148
363
root 2.95639 14.5242 2.35827 448.722 -0.956012 11.0273
lowerback 14.0687 -0.788812 12.1361
upperback -2.96099 2.02202 7.82112
thorax -11.2173 0.457593 1.3526
lowerneck -14.5109 -3.5948 0.415272
upperneck -5.03139 -5.02864 9.17119
head 1.1275 -2.4169 2.6172
rclavicle 5.08889e-014 -1.85864e-014
rhumerus 54.1688 -1.91596 -55.7273
rradius 32.334
rwrist 13.6882
rhand -30.4204 -72.3873
rfingers 7.12502
rthumb 176.277 -77.6655
lclavicle 5.08889e-014 -1.85864e-014
lhumerus 66.8529 9.1101 2.59534
lradius 31.2511
lwrist -5.95765
lhand -45.4181 -782.912
lfingers 7.12502
lthumb -18.1859 -33.7425
rfemur -123.905 -5.0215 9.0172
rtibia 67.2808
rfoot -22.1589 -19.6964
rtoes -1.30866
lfemur -56.3179 -2.70565 -33.262
ltibia 35.5972
lfoot -12.5828 9.71413
ltoes -28.8923
364
root 2.96678 14.5391 2.57567 451.213 -2.06103 11.7976
lowerback 13.6839 -0.753494 12.6931
upperback -3.9458 2.17421 7.22414
thorax -12.0816 0.407585 0.393031
lowerneck -12.6696 -3.2479 2.96067
upperneck -5.95544 -4.77388 7.6807
head 0.369647 -2.43566 1.72118
rclavicle -3.18055e-014 -4.85035e-014
rhumerus 53.8583 -2.65988 -56.7302
rradius 33.2881
rwrist 13.834
rhand -29.8909 -73.4542
rfingers 7.12502
rthumb 176.788 -76.5903
lclavicle -3.18055e-014 -4.85035e-014
lhumerus 68.8112 9.499 2.69936
lradius 30.969
lwrist -5.34878
lhand -40.4966 -790.569
lfingers 7.12502
lthumb -13.4465 -41.0233
rfemur -125.099 -6.3568 7.56954
rtibia 66.6531
rfoot -22.2251 -19.7271
rtoes -1.36074
lfemur -54.8504 -2.00695 -35.2217
ltibia 34.5914
lfoot -9.80298 6.99733
ltoes -22.6235
365
root 2.97443 14.5709 2.80675 453.257 -3.02694 12.3541
lowerback 13.6476 -0.716183 13.3746
upperback -4.75208 2.39739 6.67883
thorax -12.9516 0.371739 -0.600242
lowerneck -11.0134 -2.92656 5.83336
upperneck -6.76403 -4.54119 5.88354
head -0.29168 -2.45942 0.729804
rclavicle 1.43125e-014 -6.86801e-014
rhumerus 53.6478 -3.32146 -57.6731
rradius 34.2517
rwrist 14.0298
rhand -28.9702 -73.977
rfingers 7.12502
rthumb 177.677 -76.0559
lclavicle 1.43125e-014 -6.86801e-014
lhumerus 70.5384 9.80116 2.50178
lradius 30.7717
lwrist -4.28894
lhand -40.3562 -789.19
lfingers 7.12502
lthumb -13.3111 -39.6349
rfemur -125.63 -7.46358 6.14732
rtibia 65.878
rfoot -22.0185 -19.919
rtoes -1.45226
lfemur -52.5975 -1.27055 -36.6622
ltibia 33.6964
lfoot -8.70444 6.80346
ltoes -24.9071
366
root 2.98273 14.5587 3.00772 455.248 -4.35211 12.7153
lowerback 13.4996 -0.590497 13.669
upperback -5.47695 2.62167 6.06344
thorax -13.6617 0.360992 -1.47489
lowerneck -9.7773 -2.66559 8.23179
upperneck -7.1374 -4.31719 4.70664
head -0.687434 -2.43936 0.0236762
rclavicle 5.24792e-014 4.78077e-014
rhumerus 53.6949 -3.85835 -58.3345
rradius 34.8834
rwrist 13.7328
rhand -28.7643 -75.1346
rfingers 7.12502
rthumb 177.876 -74.8962
lclavicle 5.24792e-014 4.78077e-014
lhumerus 71.9908 9.95441 1.63504
lradius 30.7166
lwrist -1.86854
lhand -39.8678 -785.136
lfingers 7.12502
lthumb -12.8403 -35.5509
rfemur -126.134 -8.52599 4.58398
rtibia 65.0892
rfoot -21.2637 -20.3032
rtoes -1.69058
lfemur -50.1622 -0.950964 -37.9634
ltibia 32.8501
lfoot -6.84634 7.65158
ltoes -27.8299
367
root 2.99119 14.5584 3.21094 457.222 -6.18244 12.8989
lowerback 13.2313 -0.38932 13.3674
upperback -6.14702 2.78258 5.32982
thorax -14.2405 0.36864 -2.155
lowerneck -8.6498 -2.41697 10.931
upperneck -7.45474 -4.09636 3.4432
head -1.06242 -2.42145 -0.791366
rclavicle 1.74931e-014 -4.8901e-014
rhumerus 53.9606 -4.49829 -59.2462
rradius 35.2236
rwrist 14.1038
rhand -29.0145 -76.7454
rfingers 7.12502
rthumb 177.634 -73.288
lclavicle 1.74931e-014 -4.8901e-014
lhumerus 73.1734 9.75911 -0.548706
lradius 30.9058
lwrist 2.29277
lhand -33.9079 -794.591
lfingers 7.12502
lthumb -7.09065 -44.7294
rfemur -126.478 -9.63841 2.59634
rtibia 64.1007
rfoot -20.3119 -20.73
rtoes -2.70601
lfemur -47.4798 -0.841701 -39.4042
ltibia 32.3454
lfoot -5.64822 8.2255
ltoes -27.8435
368
root 2.99097 14.5712 3.42067 459.186 -7.96881 12.8419
lowerback 12.8901 -0.115476 12.7981
upperback -6.76263 2.97364 4.64701
thorax -14.7116 0.424632 -2.64488
lowerneck -7.15624 -2.25991 14.8504
upperneck -8.30707 -3.97557 1.16627
head -1.76215 -2.51533 -2.1967
rclavicle -9.54166e-015 1.61016e-014
rhumerus 54.1928 -5.17522 -60.275
rradius 35.6626
rwrist 14.7017
rhand -30.1492 -77.8269
rfingers 7.12502
rthumb 176.538 -72.2214
lclavicle -9.54166e-015 1.61016e-014
lhumerus 75.145 10.3925 0.356467
lradius 29.7618
lwrist -0.401896
lhand -28.428 -800.822
lfingers 7.12502
lthumb -1.7993 -50.8497
rfemur -126.843 -10.6148 0.551826
rtibia 63.0251
rfoot -19.901 -20.8683
rtoes -4.2059
lfemur -44.7055 -0.546085 -40.6482
ltibia 31.8441
lfoot -4.06833 8.30936
ltoes -31.4781
369
root 2.98649 14.6253 3.66558 461.447 -9.00516 12.6568
lowerback 12.1907 0.236426 12.7172
upperback -7.40116 3.33879 4.20955
thorax -14.9692 0.540442 -3.15694
lowerneck -8.76371 -2.05413 13.3683
upperneck -5.6208 -3.89792 4.68267
head -0.485488 -2.25996 -0.821168
rclavicle 4.77083e-015 9.34288e-015
rhumerus 54.4733 -5.7271 -60.8478
rradius 35.8411
rwrist 14.3749
rhand -31.6121 -78.2905
rfingers 7.12502
rthumb 175.126 -71.7855
lclavicle 4.77083e-015 9.34288e-015
lhumerus 76.5866 10.7164 -0.156792
lradius 29.273
lwrist -0.599582
lhand -28.6626 -802.242
lfingers 7.12502
lthumb -2.02582 -52.2714
rfemur -127.082 -11.4109 -0.894437
rtibia 61.5381
rfoot -19.9864 -21.0116
rtoes -6.33154
lfemur -42.5828 -0.0680259 -40.9691
ltibia 31.8024
lfoot -3.36552 7.4989
ltoes -29.064
370
root 2.97786 14.6605 3.89498 464.038 -9.8125 12.45
lowerback 11.1305 0.646612 12.702
upperback -8.08998 3.75446 3.8561
thorax -15.0516 0.688314 -3.6047
lowerneck -6.53607 -1.94824 18.0333
upperneck -7.88613 -3.6115 1.54366
head -1.79514 -2.40624 -2.63667
rclavicle 1.43125e-014 -2.18663e-014
rhumerus 54.8317 -6.30683 -61.3735
rradius 36.0845
rwrist 13.9105
rhand -31.2745 -78.8067
rfingers 7.12502
rthumb 175.452 -71.2621
lclavicle 1.43125e-014 -2.18663e-014
lhumerus 77.3275 11.2976 -2.20463
lradius 29.4069
lwrist 1.08765
lhand -31.9311 -802.567
lfingers 7.12502
lthumb -5.18216 -52.6506
rfemur -127.51 -12.3146 -2.42498
rtibia 59.916
rfoot -19.6705 -21.5894
rtoes -7.95955
lfemur -40.6133 0.580949 -41.043
ltibia 31.6965
lfoot -2.0276 6.47493
ltoes -33.8891
371
root 2.96702 14.7105 4.14426 466.613 -10.9257 12.2465
lowerback 10.0635 1.0371 12.2703
upperback -8.76887 4.06568 3.43595
thorax -15.1338 0.829345 -3.86945
lowerneck -5.43883 -1.73107 21.4918
upperneck -9.28522 -3.29164 -0.507855
head -2.37092 -2.42165 -3.48562
rclavicle 4.45278e-014 5.56597e-014
rhumerus 55.3244 -6.82305 -62.2766
rradius 36.6402
rwrist 13.3595
rhand -29.631 -79.79
rfingers 7.12502
rthumb 177.039 -70.2508
lclavicle 4.45278e-014 5.56597e-014
lhumerus 78.0358 11.9246 -4.08294
lradius 29.6154
lwrist 2.20968
lhand -37.1159 -801.013
lfingers 7.12502
lthumb -10.1865 -51.2794
rfemur -127.402 -13.4432 -4.51762
rtibia 57.9427
rfoot -19.3528 -22.3783
rtoes -7.93449
lfemur -39.0376 0.761866 -41.1055
ltibia 32.3159
lfoot -0.718867 5.43432
ltoes -31.987
372
root 2.95513 14.7477 4.38082 469.18 -11.9572 12.2244
lowerback 8.98382 1.36172 12.0865
upperback -9.46601 4.34127 3.03592
thorax -15.2306 0.928612 -4.23055
lowerneck -4.8137 -1.55744 23.7886
upperneck -9.89464 -3.00262 -1.28968
head -2.6951 -2.39117 -4.05695
rclavicle -2.70347e-014 1.55052e-014
rhumerus 55.7766 -7.25925 -63.4164
rradius 37.1105
rwrist 13.0394
rhand -28.5437 -80.6212
rfingers 7.12502
rthumb 178.089 -69.4076
lclavicle -2.70347e-014 1.55052e-014
lhumerus 78.8743 12.599 -5.21894
lradius 29.8063
lwrist 2.67935
lhand -42.1302 -793.485
lfingers 7.12502
lthumb -15.0206 -44.0497
rfemur -127.159 -14.8433 -6.5878
rtibia 55.8573
rfoot -19.1673 -23.2589
rtoes -7.21901
lfemur -37.3438 0.263338 -40.733
ltibia 33.1056
lfoot 0.178103 5.28092
ltoes -31.2275
